<svg width="40" height="40" viewBox="0 0 40 40" fill="none" xmlns="http://www.w3.org/2000/svg">
<rect width="40" height="40" rx="20" fill="url(#paint0_linear_7200_26714)"/>
<g clip-path="url(#clip0_7200_26714)">
<path d="M21.9452 15.8346H25.8327V24.0346H21.941C20.2743 24.0346 20.241 25.0013 20.241 25.0013H19.7493C19.7493 25.0013 19.7285 24.0346 18.0702 24.0346H14.1827L14.166 23.8138V15.8346H18.0577C18.8743 15.8346 19.6243 16.293 19.9993 17.0138C20.3743 16.2888 21.1243 15.8346 21.9452 15.8346ZM21.8202 23.3346H24.9993V16.668H21.816C21.3993 16.668 20.9827 16.9013 20.691 17.1888C20.3868 17.4805 20.416 17.8555 20.416 18.3138H19.591C19.591 17.9055 19.6118 17.4805 19.3118 17.1888C19.0118 16.8971 18.6202 16.6638 18.1952 16.668H15.0118L14.9993 23.3346H18.1952C18.9618 23.3346 19.3618 23.3763 19.591 23.7513V18.3221H20.416V23.7513C20.6452 23.3763 21.041 23.3346 21.816 23.3346H21.8202ZM19.9993 29.5846C14.7077 29.5846 10.416 25.293 10.416 20.0013C10.416 14.7096 14.7077 10.418 19.9993 10.418C25.291 10.418 29.5827 14.7096 29.5827 20.0013C29.5827 25.293 25.291 29.5846 19.9993 29.5846ZM19.9993 28.818C24.8743 28.818 28.816 24.8721 28.816 20.0013C28.816 15.1263 24.8743 11.1846 19.9993 11.1846C15.1243 11.1846 11.1827 15.1263 11.1827 20.0013C11.1827 24.8763 15.1285 28.818 19.9993 28.818Z" fill="white"/>
</g>
<defs>
<linearGradient id="paint0_linear_7200_26714" x1="-1.15114e-08" y1="19.6226" x2="40" y2="19.6226" gradientUnits="userSpaceOnUse">
<stop stop-color="#1B497C"/>
<stop offset="1" stop-color="#0D60C6"/>
</linearGradient>
<clipPath id="clip0_7200_26714">
<rect width="20" height="20" fill="white" transform="translate(10 10)"/>
</clipPath>
</defs>
</svg>
