<?xml version="1.0" encoding="UTF-8"?>
<svg version="1.1" xmlns="http://www.w3.org/2000/svg" width="2704" height="1195">
<path d="M0 0 C2.33587801 19.2830388 4.32644251 38.55948533 5.6875 57.9375 C5.74789459 58.78858337 5.80828918 59.63966675 5.87051392 60.51654053 C7.20833605 79.54584762 8.07662092 98.57844444 8.50268555 117.6496582 C8.5628859 120.32967969 8.62786539 123.00955629 8.69335938 125.68945312 C10.01239789 181.30418338 7.53122234 237.27592121 -2.5 292.0625 C-2.64352905 292.84847565 -2.78705811 293.63445129 -2.93493652 294.44424438 C-4.89400085 305.07318959 -7.26026668 315.5454267 -10 326 C-10.99 326 -11.98 326 -13 326 C-31.05012713 267.02297404 -48.17358665 207.8798878 -63 148 C-63.71337524 148.81676208 -63.71337524 148.81676208 -64.44116211 149.65002441 C-65.38100952 150.72528381 -65.38100952 150.72528381 -66.33984375 151.82226562 C-66.95980225 152.53177368 -67.57976074 153.24128174 -68.21850586 153.97229004 C-71.88337992 158.14367712 -75.65385541 162.21830067 -79.42382812 166.29443359 C-80.48155286 167.43899137 -81.53752218 168.58517369 -82.59179688 169.73291016 C-90.84209171 178.70669993 -99.32913797 187.43332738 -107.9375 196.0625 C-108.42786743 196.55545563 -108.91823486 197.04841125 -109.42346191 197.55630493 C-114.56446713 202.71874716 -119.73611788 207.79731122 -125.29711914 212.51147461 C-127.11543496 214.10090422 -128.80947831 215.77596021 -130.5 217.5 C-133.48872337 220.53594925 -136.61706479 223.34508659 -139.84375 226.125 C-142.19962958 228.17359094 -144.5050746 230.27203002 -146.8125 232.375 C-151.10959827 236.25350727 -155.53758754 239.92865968 -160.0390625 243.56640625 C-162.69769056 245.75153195 -165.3004839 247.9839975 -167.89453125 250.24438477 C-174.90698404 256.345654 -182.16114213 262.04478404 -189.578125 267.64453125 C-193.33338356 270.48096767 -197.03979584 273.37495968 -200.73803711 276.28515625 C-209.17840264 282.91719738 -217.78706168 289.22852512 -226.61132812 295.33837891 C-229.2659833 297.18502477 -231.90665382 299.05074867 -234.546875 300.91796875 C-245.46077342 308.61203012 -256.4796287 315.93469165 -267.95166016 322.76611328 C-270.56459317 324.34010178 -273.14054731 325.96853133 -275.71606445 327.6027832 C-332.01091768 363.27754951 -392.9443196 391.56836815 -456 413 C-456.63407776 413.21658264 -457.26815552 413.43316528 -457.92144775 413.65631104 C-532.66684659 439.16724566 -611.19721944 453.69016955 -704 457 C-705.31452148 457.02191406 -706.62904297 457.04382813 -707.98339844 457.06640625 C-786.10506952 458.22829524 -864.4001671 449.14581843 -940.04382324 429.50598145 C-941.98649163 429.00349405 -943.93123252 428.50904167 -945.87597656 428.01464844 C-1032.33375733 406.00368446 -1114.39751578 369.64285972 -1227 299 C-1227.61456055 298.56913086 -1228.22912109 298.13826172 -1228.86230469 297.69433594 C-1232.93457412 294.83218998 -1236.97252731 291.92473699 -1241 289 C-1241.72155273 288.47825195 -1242.44310547 287.95650391 -1243.18652344 287.41894531 C-1253.82969812 279.71120535 -1264.18955684 271.75105632 -1274.31933594 263.38085938 C-1276.5868871 261.51780455 -1278.88581347 259.69562664 -1281.1875 257.875 C-1290.24420518 250.64179251 -1298.99856427 243.08847757 -1307.53515625 235.25 C-1309.58115954 233.38233297 -1311.65017157 231.55630403 -1313.75 229.75 C-1317.769461 226.25481652 -1321.66570118 222.63054609 -1325.5625 219 C-1326.18801758 218.41831055 -1326.81353516 217.83662109 -1327.45800781 217.23730469 C-1331.72844715 213.24512834 -1335.89139306 209.15837472 -1340 205 C-1339.505 204.01 -1339.505 204.01 -1339 203 C-1338.15179687 203.73863281 -1337.30359375 204.47726562 -1336.4296875 205.23828125 C-1328.14281557 212.42015729 -1319.68816252 219.3114452 -1311 226 C-1310.2064209 226.61423828 -1309.4128418 227.22847656 -1308.59521484 227.86132812 C-1298.06763843 236.00323754 -1287.48641798 243.98885289 -1276.41845703 251.3828125 C-1273.52193925 253.31967236 -1270.63454138 255.26987638 -1267.74609375 257.21875 C-1246.67497237 271.4067422 -1225.2416003 284.71247579 -1203 297 C-1202.03191406 297.53625 -1201.06382812 298.0725 -1200.06640625 298.625 C-1153.64174282 324.27262282 -1105.26178311 345.16063666 -1055 362 C-1054.34787537 362.21851624 -1053.69575073 362.43703247 -1053.02386475 362.66217041 C-994.7693708 382.10349909 -934.22633895 394.78654804 -873.1875 401.3125 C-872.1429213 401.42581161 -872.1429213 401.42581161 -871.07723999 401.54141235 C-843.9240369 404.4333471 -816.75928371 405.38383413 -789.47208786 405.31805801 C-787.07954593 405.31239236 -784.68701115 405.30958774 -782.29446411 405.30697632 C-757.42837294 405.26758179 -732.74159324 404.67852256 -708 402 C-707.179552 401.91278687 -706.359104 401.82557373 -705.51379395 401.73571777 C-622.05158367 392.81722335 -539.89837782 371.94161135 -376 294 C-375.18080078 293.52079102 -374.36160156 293.04158203 -373.51757812 292.54785156 C-330.28281738 267.23928213 -289.67051509 237.91095513 -251.60644531 205.36816406 C-249.97045158 203.97483444 -248.32587632 202.59220031 -246.6796875 201.2109375 C-240.35559634 195.88154821 -234.19903159 190.40221553 -228.1796875 184.73046875 C-227.4483963 184.04150513 -226.7171051 183.3525415 -225.96365356 182.6427002 C-218.22765985 175.31939565 -210.66994254 167.82145973 -203.1484375 160.27880859 C-200.84490873 157.96983764 -198.53596864 155.66637223 -196.2265625 153.36328125 C-194.73144953 151.86750859 -193.23664619 150.37142636 -191.7421875 148.875 C-190.72800247 147.86385132 -190.72800247 147.86385132 -189.69332886 146.83227539 C-185.80878549 142.9287576 -182.10214012 138.91998979 -178.50854492 134.74665833 C-176.43371043 132.34432553 -174.27882212 130.01899431 -172.125 127.6875 C-168.04250186 123.21091456 -164.1662902 118.61335801 -160.36328125 113.8984375 C-157.70651477 110.64005614 -154.98158914 107.44555625 -152.25 104.25 C-148.60404925 99.97446497 -145.14337185 95.6608617 -142 91 C-151.57274606 90.35741756 -161.14045793 89.89753325 -170.73046875 89.60546875 C-205.08273919 88.54896577 -239.30161081 86.6734152 -273.58154297 84.24212646 C-276.8393543 84.0113784 -280.09737733 83.78388276 -283.35546875 83.55712891 C-287.96289575 83.23484458 -292.56941487 82.90211368 -297.17523193 82.55758667 C-298.78658926 82.43748862 -300.39811966 82.31968671 -302.00982666 82.20437622 C-304.1661711 82.04850736 -306.32134909 81.88164474 -308.4765625 81.7109375 C-309.65299316 81.62118652 -310.82942383 81.53143555 -312.04150391 81.43896484 C-314.80738963 81.02857843 -316.62226305 80.42693383 -319 79 C-280.85433465 58.88997401 -239.49232994 46.14707067 -198 35 C-197.23016785 34.79266235 -196.46033569 34.58532471 -195.66717529 34.3717041 C-136.81473148 18.5695448 -76.45541504 8.29086497 -16 1 C-15.23981567 0.90436768 -14.47963135 0.80873535 -13.69641113 0.71020508 C-9.09151021 0.15552659 -4.63802796 -0.09868145 0 0 Z " fill="#1ED561" transform="translate(1719,151)"/>
<path d="M0 0 C12.09982027 11.42434486 21.58985031 25.15137706 29 40 C29.51554443 41.02915527 29.51554443 41.02915527 30.04150391 42.07910156 C46.60601737 75.76779294 51.50730767 113.6927795 52.75 150.8125 C52.81719238 152.72095703 52.81719238 152.72095703 52.88574219 154.66796875 C53.1897326 166.53864395 52.51968542 178.0472354 52 190 C-31.82 190 -115.64 190 -202 190 C-197.25167274 220.8641272 -192.92079738 247.77214348 -167.2109375 267.36328125 C-151.31888844 278.28483837 -129.62286171 280.19695078 -110.953125 277.5 C-103.21267653 275.9863123 -96.10395196 273.39669834 -89 270 C-88.09765625 269.56945312 -87.1953125 269.13890625 -86.265625 268.6953125 C-76.83534132 263.87115004 -68.11235313 257.43250672 -60.8125 249.75 C-52.29450497 240.92906373 -41.73037636 236.97882589 -29.58568573 236.68173981 C-25.38584518 236.64205685 -21.18803041 236.66882685 -16.98828125 236.70703125 C-15.16554618 236.71263693 -13.34280654 236.71690242 -11.52006531 236.71989441 C-6.75744823 236.73126675 -1.99511217 236.7606671 2.76739502 236.79400635 C7.64111532 236.82487267 12.51488169 236.83843491 17.38867188 236.85351562 C26.9259037 236.88554517 36.46292835 236.93664778 46 237 C45.69638339 238.57397758 45.38960742 240.1473459 45.08154297 241.72045898 C44.82581009 243.03481178 44.82581009 243.03481178 44.56491089 244.37571716 C40.12358956 265.0077913 29.819383 287.29431984 17 304 C16.35675781 304.84949219 15.71351563 305.69898438 15.05078125 306.57421875 C-12.6137797 342.06529597 -49.52997098 359.88295186 -93.67626953 365.71777344 C-137.30537958 371.01670717 -183.11470908 365.03288597 -222 344 C-223.64162109 343.11634766 -223.64162109 343.11634766 -225.31640625 342.21484375 C-232.10148007 338.41069636 -238.10698998 334.06741924 -244 329 C-245.21623047 327.96746094 -245.21623047 327.96746094 -246.45703125 326.9140625 C-284.29591055 293.90187489 -300.21206721 243.82660062 -304 195 C-304.08612549 193.9471582 -304.17225098 192.89431641 -304.26098633 191.80957031 C-305.0299474 181.57410277 -305.2021158 171.38541386 -305.1875 161.125 C-305.18656342 160.26939484 -305.18562683 159.41378967 -305.18466187 158.53225708 C-305.06225006 106.68693948 -296.73367508 51.63521326 -262 11 C-260.79923828 9.55367187 -260.79923828 9.55367187 -259.57421875 8.078125 C-232.47381852 -23.3246301 -190.16056205 -37.31790156 -150 -41 C-148.83210937 -41.11085938 -147.66421875 -41.22171875 -146.4609375 -41.3359375 C-94.3713122 -45.53488333 -39.40837836 -36.52681184 0 0 Z M-178 61 C-187.0115949 72.14241537 -192.95427398 84.51446683 -196.875 98.25 C-197.07834961 98.95793701 -197.28169922 99.66587402 -197.49121094 100.39526367 C-199.08570921 106.3953579 -199.41844459 111.60289045 -200 118 C-151.82 118 -103.64 118 -54 118 C-55.94451897 98.55481032 -60.64377452 79.55773144 -73 64 C-73.57105469 63.24203125 -74.14210938 62.4840625 -74.73046875 61.703125 C-85.28363208 48.65230467 -100.4741126 42.48678499 -116.78125 40.3125 C-139.31202509 38.12504611 -162.28466248 44.06207544 -178 61 Z " fill="#1ED561" transform="translate(955,677)"/>
<path d="M0 0 C1.61083139 1.49284056 3.21523782 2.99264993 4.8125 4.5 C5.54984375 5.17289063 6.2871875 5.84578125 7.046875 6.5390625 C40.08494996 37.81979305 52.3796427 87.79538007 55.8125 131.5 C55.94277588 133.02923096 55.94277588 133.02923096 56.07568359 134.58935547 C56.86621516 144.83268577 56.96617353 155.03206352 56.94287109 165.30126953 C56.93744232 168.15532581 56.94288615 171.0092293 56.94921875 173.86328125 C56.94855901 175.69270868 56.94728 177.52213601 56.9453125 179.3515625 C56.94733673 180.19739899 56.94936096 181.04323547 56.95144653 181.91470337 C56.94829437 182.70678192 56.94514221 183.49886047 56.94189453 184.31494141 C56.94070114 185.34961044 56.94070114 185.34961044 56.93948364 186.40518188 C56.8125 188.5 56.8125 188.5 55.8125 193.5 C-28.0075 193.5 -111.8275 193.5 -198.1875 193.5 C-197.8575 194.16 -197.5275 194.82 -197.1875 195.5 C-196.95811454 196.9530158 -196.7720157 198.413008 -196.609375 199.875 C-194.05081492 221.46029696 -189.64594002 242.45969569 -175.1875 259.5 C-174.59453125 260.30050781 -174.0015625 261.10101562 -173.390625 261.92578125 C-163.53527414 273.44116461 -146.91305637 279.916535 -132.1875 281.5 C-105.76869899 283.44135046 -82.86121538 276.16146575 -62.62719727 258.88891602 C-60.30146061 256.86856332 -57.98686359 254.83584813 -55.67529297 252.79931641 C-46.00596058 244.35491422 -37.02393262 240.32438467 -24.0925293 240.38647461 C-23.29200638 240.38632858 -22.49148346 240.38618256 -21.66670227 240.3860321 C-19.0316798 240.38672645 -16.39672881 240.39449644 -13.76171875 240.40234375 C-11.93040506 240.40420963 -10.09909086 240.40563273 -8.26777649 240.40663147 C-3.45586765 240.41044328 1.35601084 240.42026215 6.16790771 240.43133545 C11.08133534 240.44157831 15.99476789 240.44613525 20.90820312 240.45117188 C30.54298206 240.46188563 40.1777385 240.47894599 49.8125 240.5 C49.02604517 247.08491477 47.64164744 252.79683782 45.4375 259.0625 C45.0873584 260.05830078 44.7372168 261.05410156 44.37646484 262.08007812 C29.82302257 302.27710203 4.26560893 335.74689387 -34.76123047 354.38623047 C-73.11859233 371.99402729 -117.99144125 374.22573778 -159.1875 367.5 C-160.02104004 367.36609863 -160.85458008 367.23219727 -161.71337891 367.09423828 C-190.8751503 362.1993326 -218.46521811 350.527547 -241.1875 331.5 C-242.16203125 330.68402344 -243.1365625 329.86804688 -244.140625 329.02734375 C-274.86249122 302.21469703 -289.41362401 262.97835192 -296.4375 223.8125 C-296.66433472 222.55179688 -296.66433472 222.55179688 -296.89575195 221.265625 C-299.86960449 203.45273529 -300.53488237 185.72920787 -300.50317383 167.6940918 C-300.50002491 163.96698401 -300.52353112 160.24068174 -300.54882812 156.51367188 C-300.61466152 131.71001924 -298.04498712 107.61406722 -292.1875 83.5 C-291.99961914 82.7251123 -291.81173828 81.95022461 -291.61816406 81.15185547 C-284.65646066 53.36088438 -270.78062377 28.29776429 -251.1875 7.5 C-250.58808594 6.83613281 -249.98867187 6.17226563 -249.37109375 5.48828125 C-191.26929539 -56.37821247 -60.97792579 -53.79856755 0 0 Z M-174.35546875 65.328125 C-187.68042245 81.12487182 -193.943864 101.30727596 -196.1875 121.5 C-148.0075 121.5 -99.8275 121.5 -50.1875 121.5 C-50.83258319 113.11391856 -51.37286142 106.11087757 -53.6875 98.25 C-53.94813232 97.35885498 -54.20876465 96.46770996 -54.47729492 95.54956055 C-58.63337009 82.09892466 -64.93036832 70.27961159 -75.1875 60.5 C-75.99380859 59.6646875 -75.99380859 59.6646875 -76.81640625 58.8125 C-86.96259561 49.04774633 -102.41169158 44.25640878 -116.1875 43.5 C-117.05503906 43.44714844 -117.92257812 43.39429688 -118.81640625 43.33984375 C-140.22745214 42.66983823 -159.44439621 49.65783288 -174.35546875 65.328125 Z " fill="#1ED561" transform="translate(1327.1875,673.5)"/>
<path d="M0 0 C71.34275328 0 71.34275328 0 85.8984375 13.70703125 C96.17014925 24.91427065 100.14076917 38.14580913 100.15821838 53.03561401 C100.16562535 54.38475079 100.16562535 54.38475079 100.17318195 55.76114285 C100.18851584 58.76898274 100.19690644 61.77680136 100.20532227 64.78466797 C100.21490402 66.94316291 100.22491427 69.10165598 100.23532104 71.26014709 C100.26234395 77.11703108 100.2833677 82.97392311 100.30332303 88.83083487 C100.32519868 94.95275936 100.35257965 101.07465916 100.37937927 107.19656372 C100.42928478 118.78799648 100.47423157 130.37944297 100.51740164 141.97090256 C100.5667923 155.16790489 100.62170366 168.36488244 100.67708123 181.5618608 C100.7908684 208.70788407 100.89771457 235.85393112 101 263 C102.44943227 261.39565329 103.89799678 259.79052258 105.34619141 258.18505859 C106.15295319 257.2912851 106.95971497 256.3975116 107.79092407 255.47665405 C110.07041247 252.9210587 112.24752356 250.30822539 114.375 247.625 C118.05701535 243.07059077 121.92900357 238.76252435 125.91577148 234.47875977 C128.8868675 231.26736593 131.69946588 227.97390237 134.4375 224.5625 C138.28045479 219.78458662 142.36831329 215.31005016 146.55615234 210.83837891 C150.47906854 206.62570895 154.11911024 202.23586445 157.72265625 197.74609375 C160.21826469 194.73680948 162.83765143 191.86061346 165.5 189 C168.97419243 185.26672745 172.3006871 181.47628889 175.5 177.5 C179.1356405 172.98141824 182.96836402 168.72016671 186.91625977 164.47827148 C189.88715628 161.2670095 192.69961077 157.97372185 195.4375 154.5625 C199.2526237 149.81752536 203.2900547 145.34669205 207.48803711 140.94165039 C207.95733643 140.4439917 208.42663574 139.94633301 208.91015625 139.43359375 C209.37819923 138.94203482 209.84624222 138.45047588 210.32846832 137.94402122 C212.08813004 135.981514 212.08813004 135.981514 213.63254547 133.51709938 C218.38137849 126.55669375 218.38137849 126.55669375 222.64297485 125.0909996 C225.77748726 124.77092738 228.77455056 124.76118579 231.92382812 124.86474609 C233.0954248 124.86328583 234.26702148 124.86182556 235.47412109 124.86032104 C239.32841322 124.86726208 243.17780793 124.94490963 247.03125 125.0234375 C249.71032901 125.04209893 252.38914042 125.05682032 255.0682373 125.0663147 C261.38701619 125.09731199 267.7040507 125.179251 274.02206373 125.27980959 C281.21896284 125.39185299 288.41594835 125.44663222 295.61350346 125.49676394 C310.40989168 125.60109705 325.20491535 125.77681892 340 126 C336.70549342 132.83098257 331.10693121 137.95733482 325.74609375 143.22265625 C323.93522357 145.06593574 322.24678646 146.97822799 320.5625 148.9375 C317.52320349 152.46634763 314.28983153 155.73005027 310.97265625 158.99609375 C308.42662171 161.58246151 306.07978443 164.3153528 303.71484375 167.06640625 C301.4995262 169.56431556 299.1310183 171.88024989 296.75 174.21875 C294.91757513 176.08389674 293.20646865 178.01927746 291.5 180 C288.71760668 183.22956367 285.78980571 186.23322653 282.75 189.21875 C280.91757513 191.08389674 279.20646865 193.01927746 277.5 195 C274.71760668 198.22956367 271.78980571 201.23322653 268.75 204.21875 C266.91757513 206.08389674 265.20646865 208.01927746 263.5 210 C260.71760668 213.22956367 257.78980571 216.23322653 254.75 219.21875 C252.91757513 221.08389674 251.20646865 223.01927746 249.5 225 C246.71760668 228.22956367 243.78980571 231.23322653 240.75 234.21875 C238.91757513 236.08389674 237.20646865 238.01927746 235.5 240 C232.71760668 243.22956367 229.78980571 246.23322653 226.75 249.21875 C224.29620056 251.71636729 222.04153232 254.37104543 219.7578125 257.0234375 C217.49282625 259.5702887 215.07543151 261.93721737 212.64453125 264.32421875 C210.25894579 266.755136 208.13478841 269.34768712 206 272 C207.29932983 275.43647057 208.79719548 278.55425111 210.66015625 281.71875 C211.46622314 283.0941394 211.46622314 283.0941394 212.28857422 284.49731445 C212.87396973 285.48820068 213.45936523 286.47908691 214.0625 287.5 C214.67883301 288.54953857 215.29516602 289.59907715 215.93017578 290.68041992 C217.25990595 292.94447883 218.59080421 295.20781005 219.92333984 297.47021484 C222.00358737 301.00368363 224.07488228 304.542347 226.14453125 308.08203125 C233.7123769 321.02109272 241.32159022 333.93458771 248.97338867 346.82421875 C253.90533533 355.13781154 258.80358379 363.47062752 263.6875 371.8125 C270.76073161 383.89338034 277.8686026 395.95335464 285 408 C292.56231509 420.77456896 300.09563789 433.56567983 307.59838867 446.37530518 C312.30148818 454.40439262 317.01426727 462.42759968 321.75 470.4375 C322.51812012 471.73747925 322.51812012 471.73747925 323.30175781 473.0637207 C326.07872452 477.76073389 328.86404227 482.45265518 331.65625 487.140625 C332.25727539 488.1519751 332.85830078 489.1633252 333.47753906 490.20532227 C334.63333268 492.14995299 335.79142748 494.09321841 336.95214844 496.03491211 C337.4680957 496.9038208 337.98404297 497.77272949 338.515625 498.66796875 C339.20060059 499.81688599 339.20060059 499.81688599 339.89941406 500.98901367 C341 503 341 503 342 506 C326.45797142 506.2337434 310.91607449 506.41001111 295.37270164 506.51812172 C288.15525895 506.56965783 280.93890909 506.6398961 273.72216797 506.75439453 C267.43093308 506.85416148 261.14048955 506.91860267 254.84848559 506.94088495 C251.51715953 506.95390964 248.18862147 506.98970037 244.85789108 507.05730057 C241.13615095 507.12983745 237.41910976 507.13989454 233.69677734 507.13525391 C232.04600189 507.18918304 232.04600189 507.18918304 230.36187744 507.24420166 C227.26625004 507.20239741 224.90714771 507.07246793 222 506 C219.24018988 502.97116297 217.63452455 499.72982252 216 496 C215.35823739 494.81375118 214.70652059 493.63277743 214.04052734 492.45996094 C213.4780127 491.39551758 212.91549805 490.33107422 212.3359375 489.234375 C212.02205582 488.64270538 211.70817413 488.05103577 211.38478088 487.44143677 C210.72096383 486.18972239 210.05828074 484.93740602 209.396698 483.68450928 C207.63370224 480.34640774 205.86150718 477.01319457 204.08984375 473.6796875 C203.73747147 473.0162735 203.38509918 472.3528595 203.02204895 471.66934204 C200.03379671 466.04925341 196.99746953 460.4563676 193.9375 454.875 C189.4085056 446.60977876 184.94264518 438.31186518 180.5 430 C175.49170467 420.63180613 170.46150678 411.2764159 165.35205078 401.96289062 C162.85150487 397.40480558 160.37575442 392.83602563 157.94140625 388.2421875 C144.49465781 361.69615338 144.49465781 361.69615338 121 345 C115.70190854 344.37367523 111.08157576 344.52841298 106.61603165 347.66699886 C102.78414607 350.82777102 101.22052477 354.20463691 100.62751007 359.03256035 C100.46668351 362.8792162 100.43905952 366.71535391 100.45410156 370.56420898 C100.44535877 372.04306624 100.43487053 373.52191405 100.42277527 375.00074768 C100.39498071 379.0002813 100.39150912 382.99950526 100.39249516 386.99912143 C100.3893604 391.18454803 100.3637305 395.36983633 100.34051514 399.55519104 C100.29999461 407.4739664 100.27962373 415.3926595 100.26654124 423.31152254 C100.24768597 434.01705354 100.19760479 444.7224359 100.14929771 455.42786694 C100.0740518 472.28523689 100.04044038 489.14242741 100 506 C67 506 34 506 0 506 C0 339.02 0 172.04 0 0 Z " fill="#1ED561" transform="translate(342,529)"/>
<path d="M0 0 C0.83015625 0.70898438 1.6603125 1.41796875 2.515625 2.1484375 C41.1320275 35.90817588 55.22022252 88.69559374 58.64039612 138.16532898 C62.41770566 199.96458281 57.80895874 271.13776285 15.375 320.0546875 C-13.74045271 352.92562676 -53.94062196 368.30311856 -97.16357422 371.77294922 C-144.96186438 374.60179037 -197.24179727 369.99578104 -236 339 C-236.5451123 338.56703613 -237.09022461 338.13407227 -237.65185547 337.68798828 C-276.48033315 306.57105206 -292.38543277 257.53419387 -297.8125 209.5625 C-300.96159782 177.85946137 -300.80160716 144.51290998 -296 113 C-295.75056641 111.34967773 -295.75056641 111.34967773 -295.49609375 109.66601562 C-290.76878361 79.74389332 -281.75868125 48.34391489 -263 24 C-262.34128906 23.1234375 -261.68257812 22.246875 -261.00390625 21.34375 C-251.06204137 8.64735008 -239.6340449 -2.37917323 -226 -11 C-225.39494629 -11.38494629 -224.78989258 -11.76989258 -224.16650391 -12.16650391 C-162.26093888 -50.83925547 -56.10973561 -48.76651518 0 0 Z M-172.77734375 72.3828125 C-199.12439518 103.40658132 -200.45263448 151.00434683 -197.48657227 189.5065918 C-195.10936944 215.18970468 -189.40423588 242.08704543 -172 262 C-171.20335937 262.92039062 -171.20335937 262.92039062 -170.390625 263.859375 C-158.28977228 276.88219745 -141.34623343 281.92451262 -124.08203125 283.21875 C-104.2772201 283.86020137 -86.74555488 277.14996411 -72.25 263.6875 C-68.08248697 259.29122134 -65.01804556 254.22569 -62 249 C-61.484375 248.11828125 -60.96875 247.2365625 -60.4375 246.328125 C-38.62927736 206.11921451 -40.21455393 147.74965437 -52.08984375 104.94140625 C-58.4696199 84.29842685 -69.5908973 67.63590562 -88.9375 57.1875 C-116.61876587 44.09620069 -151.7958407 50.40219026 -172.77734375 72.3828125 Z " fill="#1ED561" transform="translate(1942,672)"/>
<path d="M0 0 C1.47919922 1.21429687 1.47919922 1.21429687 2.98828125 2.453125 C34.45087091 29.7125412 45.72999521 70.94553337 49 111 C49.45607078 119.74363838 49.38276147 128.49383313 49.34057617 137.24633789 C49.3397272 139.76230865 49.34021029 142.27828015 49.34190369 144.79425049 C49.34257966 150.15229547 49.33425357 155.5102028 49.31719017 160.86821175 C49.29253755 168.61443561 49.28496849 176.36060687 49.2812262 184.1068657 C49.27470223 196.68252098 49.25485281 209.25811701 49.22631836 221.83374023 C49.19867165 234.0310029 49.17749043 246.22824933 49.16479492 258.42553711 C49.16400675 259.18065289 49.16321858 259.93576868 49.16240653 260.71376676 C49.15849068 264.50293897 49.15469973 268.29211129 49.15097082 272.08128369 C49.12000155 303.3875655 49.06705117 334.69377365 49 366 C41.71418747 366.09364197 34.42850953 366.16423333 27.14221191 366.20724869 C23.75702305 366.22791829 20.37225275 366.25584479 16.98730469 366.30175781 C-24.20570238 366.8193344 -24.20570238 366.8193344 -39.8125 352.875 C-48.20621379 343.77508433 -51.31423995 331.98238294 -51.26501465 319.93197632 C-51.26939592 319.05297153 -51.27377719 318.17396674 -51.27829123 317.26832545 C-51.29055283 314.34077757 -51.28880707 311.41341032 -51.28710938 308.48583984 C-51.29313752 306.37932064 -51.30006276 304.27280384 -51.30781555 302.16629028 C-51.32268104 297.63743765 -51.33144798 293.10862894 -51.33552551 288.57975388 C-51.34225507 281.40896988 -51.36402993 274.2382794 -51.38806152 267.0675354 C-51.43699163 251.83671223 -51.46931518 236.6058692 -51.5 221.375 C-51.53312144 204.9509672 -51.56917477 188.52697108 -51.62413073 172.10299456 C-51.64738494 164.98503617 -51.66119688 157.86714263 -51.66762543 150.74915004 C-51.67359486 146.30603115 -51.68771824 141.86296431 -51.70396996 137.41987228 C-51.70980956 135.371355 -51.71232581 133.32282488 -51.71113014 131.27429962 C-51.70225161 109.98271723 -52.85972348 88.01520759 -67.875 71.3125 C-77.1689932 62.59742557 -89.58732555 57.9643523 -102 56 C-102.72832031 55.87109375 -103.45664063 55.7421875 -104.20703125 55.609375 C-123.16720329 52.85416836 -146.31029255 54.4592124 -162.5 65.375 C-164.02230886 66.55510389 -165.52449699 67.76187225 -167 69 C-167.63292969 69.49886719 -168.26585938 69.99773437 -168.91796875 70.51171875 C-180.19076364 80.39096725 -183.7025957 96.60666939 -184.80657184 110.856215 C-185.09700004 115.57654017 -185.15332751 120.28179297 -185.15821838 125.00994873 C-185.16315636 126.04925702 -185.16809434 127.08856532 -185.17318195 128.1593678 C-185.18840885 131.60461614 -185.19687694 135.04984608 -185.20532227 138.49511719 C-185.21491247 140.97961587 -185.2249232 143.46411296 -185.23532104 145.9486084 C-185.25668731 151.27844457 -185.27515498 156.60827846 -185.29092598 161.93813324 C-185.31373271 169.64400828 -185.34185991 177.34985685 -185.37124526 185.05570927 C-185.4187896 197.56089079 -185.462089 210.0660832 -185.50268555 222.57128906 C-185.54210773 234.71192267 -185.58354982 246.85254664 -185.62768555 258.99316406 C-185.63040982 259.74273427 -185.63313409 260.49230447 -185.63594092 261.26458892 C-185.6496215 265.02532739 -185.66334156 268.7860657 -185.67708123 272.54680395 C-185.79083906 303.6978503 -185.8969056 334.84891609 -186 366 C-219.33 366 -252.66 366 -287 366 C-287.04421015 335.05255168 -287.08109229 304.10513419 -287.10213066 273.15766409 C-287.10463164 269.49207223 -287.10722033 265.82648043 -287.10986328 262.16088867 C-287.1103879 261.43123058 -287.11091252 260.70157248 -287.11145304 259.94980354 C-287.12012153 248.18331983 -287.13587159 236.41685595 -287.15430559 224.65038394 C-287.17310418 212.54897132 -287.18413761 200.44756898 -287.18817699 188.34614235 C-287.19065899 181.56073901 -287.19655524 174.77537677 -287.21146011 167.98998833 C-287.22517434 161.58538637 -287.22919507 155.18084702 -287.22621536 148.77623177 C-287.2267594 146.44284346 -287.23065349 144.10945275 -287.23841095 141.77607727 C-287.2994234 122.4537431 -286.78432231 103.01641418 -282.6875 84.0625 C-282.4694873 83.0216626 -282.25147461 81.9808252 -282.02685547 80.90844727 C-274.43716336 45.70176982 -257.32070679 13.59196318 -227 -7 C-165.31848093 -46.67882856 -57.91546522 -47.83301581 0 0 Z " fill="#1ED561" transform="translate(2312,669)"/>
<path d="M0 0 C0 34.32 0 68.64 0 104 C-15.84 104.33 -31.68 104.66 -48 105 C-69.28400184 108.99075035 -88.4635361 114.7045357 -101.22265625 133.2265625 C-114.22811143 154.09265462 -115.45349562 178.09812447 -115.43237305 202.02856445 C-115.44141844 204.14001528 -115.4517523 206.25146092 -115.46325684 208.36289978 C-115.49052726 214.02264711 -115.50007002 219.68229404 -115.50611091 225.34209847 C-115.51557365 231.28378444 -115.54178259 237.22539765 -115.56611633 243.16703796 C-115.60956969 254.38610241 -115.63824605 265.60515256 -115.66143972 276.8242752 C-115.69369827 292.00748081 -115.74913617 307.19060135 -115.80318546 322.3737421 C-115.88757416 346.24913589 -115.94129804 370.12449722 -116 394 C-149.33 394 -182.66 394 -217 394 C-217.1209091 340.71043253 -217.1209091 340.71043253 -217.14648438 318.23046875 C-217.16422517 302.76185085 -217.18498165 287.29328229 -217.22631836 271.82470703 C-217.25642066 260.55468064 -217.27562192 249.28469461 -217.28226548 238.01462913 C-217.28614281 232.0590208 -217.29511635 226.10352783 -217.31719017 220.14795685 C-217.53692483 158.40187877 -212.2726085 95.7588968 -166.8125 49.375 C-134.62620791 17.58761223 -89.95000908 5.12166916 -46 1 C-44.82824219 0.88785156 -43.65648437 0.77570312 -42.44921875 0.66015625 C-28.28419304 -0.45052783 -14.26685804 0 0 0 Z " fill="#1ED561" transform="translate(1623,641)"/>
</svg>
